<svg xmlns="http://www.w3.org/2000/svg" width="285" height="49.517" viewBox="0 0 285 49.517">
  <g id="logo-bla" transform="translate(1279 287.384)">
    <g id="logo-whi" transform="translate(-1425.25 -170.384)">
      <g id="グループ_785" data-name="グループ 785" transform="translate(146.25 -117)">
        <g id="パス_1129" data-name="パス 1129" transform="translate(-146.25 117)" fill="#fff" stroke-miterlimit="10">
          <path d="M 171.0086975097656 -67.65044403076172 C 168.2332611083984 -67.65044403076172 165.5103454589844 -68.10894775390625 162.9155731201172 -69.01321411132813 C 160.4059906005859 -69.88778686523438 158.0651702880859 -71.16075897216797 155.9580841064453 -72.79676818847656 C 154.0144348144531 -74.29993438720703 152.3112335205078 -76.08158874511719 150.8955535888672 -78.09241485595703 L 150.8211517333984 -78.19575500488281 C 149.4036865234375 -80.23001098632813 148.3073883056641 -82.45418548583984 147.5641937255859 -84.80439758300781 C 147.1432037353516 -86.12890625 146.8351745605469 -87.49364471435547 146.6485900878906 -88.86095428466797 C 146.4954681396484 -89.9735107421875 146.4178314208984 -91.11075592041016 146.4178314208984 -92.24131011962891 C 146.4178314208984 -97.55941772460938 148.08935546875 -102.6210784912109 151.251708984375 -106.8790969848633 C 152.3258209228516 -108.3297882080078 153.5665435791016 -109.6671905517578 154.9395141601563 -110.8543472290039 C 157.1235046386719 -112.7439270019531 159.5948486328125 -114.2196044921875 162.284912109375 -115.2404098510742 C 165.0683288574219 -116.296630859375 168.0034332275391 -116.8321762084961 171.0086975097656 -116.8321762084961 C 176.1604309082031 -116.8321762084961 181.0913543701172 -115.2564010620117 185.2684020996094 -112.2751998901367 C 185.8980255126953 -111.8290710449219 186.5065307617188 -111.3512496948242 187.0775146484375 -110.8546600341797 C 188.3699035644531 -109.7372360229492 189.5430603027344 -108.4902877807617 190.5647583007813 -107.1481170654297 L 190.5667419433594 -107.1455154418945 L 190.5688018798828 -107.1429977416992 C 190.5829925537109 -107.1258010864258 190.5963439941406 -107.1075057983398 190.6096038818359 -107.089485168457 C 190.6204833984375 -107.0746841430664 190.6313018798828 -107.0600204467773 190.6422424316406 -107.0458984375 C 190.7089691162109 -106.9577255249023 190.7760314941406 -106.868034362793 190.8414611816406 -106.7783584594727 C 192.2342224121094 -104.8839874267578 193.3421936035156 -102.8091201782227 194.135009765625 -100.6109008789063 C 195.1068725585938 -97.93352508544922 195.5995788574219 -95.11769866943359 195.5995788574219 -92.24131011962891 C 195.5995788574219 -91.15792846679688 195.5273895263672 -90.06260681152344 195.385009765625 -88.98578643798828 C 194.6102447509766 -83.12677001953125 191.7313232421875 -77.73448944091797 187.2785949707031 -73.80226898193359 C 182.7864074707031 -69.835205078125 177.00830078125 -67.65044403076172 171.0086975097656 -67.65044403076172 Z" stroke="none"/>
          <path d="M 171.0086975097656 -67.81826782226563 C 176.9673614501953 -67.81826782226563 182.7060089111328 -69.98809814453125 187.1675109863281 -73.92805480957031 C 191.5899047851563 -77.83348083496094 194.4491729736328 -83.18889617919922 195.2186431884766 -89.00778961181641 C 195.3600616455078 -90.07734680175781 195.4317626953125 -91.16526031494141 195.4317626953125 -92.24131011962891 C 195.4317626953125 -95.09811401367188 194.9424438476563 -97.89467620849609 193.9771423339844 -100.553955078125 C 193.1898040771484 -102.7370071411133 192.0894470214844 -104.7975845336914 190.7059020996094 -106.6794357299805 C 190.6410522460938 -106.7683258056641 190.5745544433594 -106.8572311401367 190.5095825195313 -106.9430999755859 C 190.497802734375 -106.9583206176758 190.4861297607422 -106.97412109375 190.4744110107422 -106.9900588989258 C 190.4629821777344 -107.0055847167969 190.4515533447266 -107.0214080810547 190.4393310546875 -107.0362396240234 L 190.4351806640625 -107.0412750244141 L 190.4312286376953 -107.0464706420898 C 189.4165344238281 -108.3794250488281 188.2513885498047 -109.6178665161133 186.9673767089844 -110.7280349731445 C 186.4005889892578 -111.2209854125977 185.7964935302734 -111.6953506469727 185.1709136962891 -112.1386108398438 C 181.0224914550781 -115.0993804931641 176.1252746582031 -116.6643600463867 171.0086975097656 -116.6643600463867 C 168.0238647460938 -116.6643600463867 165.1087799072266 -116.1324844360352 162.3444519042969 -115.0835113525391 C 159.6728210449219 -114.069694519043 157.2183990478516 -112.604118347168 155.0492858886719 -110.7273941040039 C 153.6856231689453 -109.5483093261719 152.453369140625 -108.2200164794922 151.3864288330078 -106.7790374755859 C 148.2457427978516 -102.5501708984375 146.5856628417969 -97.52310943603516 146.5856628417969 -92.24131011962891 C 146.5856628417969 -91.11838531494141 146.6627502441406 -89.98883819580078 146.8148651123047 -88.88364410400391 C 147.0001525878906 -87.52585601806641 147.3060455322266 -86.17057800292969 147.7242126464844 -84.85499572753906 C 148.4620056152344 -82.52181243896484 149.5501861572266 -80.31375885009766 150.9587097167969 -78.29191589355469 L 151.0327606201172 -78.18902587890625 C 152.4387817382813 -76.19190979003906 154.1303558349609 -74.42242431640625 156.0610046386719 -72.92932891845703 C 158.1536712646484 -71.30449676513672 160.4784545898438 -70.04024505615234 162.9707946777344 -69.17168426513672 C 165.5477752685547 -68.27362060546875 168.2521209716797 -67.81826782226563 171.0086975097656 -67.81826782226563 M 171.0086975097656 -67.48262786865234 C 165.2989044189453 -67.48262786865234 160.0407104492188 -69.41440582275391 155.8551635742188 -72.66421508789063 C 153.9021759033203 -74.17459869384766 152.1814880371094 -75.97434997558594 150.7583312988281 -77.99581146240234 L 150.6849670410156 -78.09769439697266 C 149.2781066894531 -80.11668395996094 148.1622314453125 -82.35659027099609 147.4041900634766 -84.75379943847656 C 146.9860382080078 -86.06937408447266 146.6738586425781 -87.43465423583984 146.4823150634766 -88.83826446533203 C 146.3290710449219 -89.95169830322266 146.2500152587891 -91.08712768554688 146.2500152587891 -92.24131011962891 C 146.2500152587891 -97.76200103759766 148.0587005615234 -102.8612594604492 151.1169738769531 -106.9791564941406 C 152.2026977539063 -108.4455108642578 153.4506072998047 -109.7887954711914 154.8297576904297 -110.9812850952148 C 159.165283203125 -114.7323913574219 164.8228912353516 -117 171.0086975097656 -117 C 176.3598327636719 -117 181.3172912597656 -115.3013305664063 185.3658905029297 -112.4117965698242 C 185.9951324462891 -111.965934753418 186.6056365966797 -111.4874649047852 187.1876373291016 -110.9812850952148 C 188.4820098876953 -109.8621597290039 189.6614685058594 -108.6118011474609 190.6982879638672 -107.2497711181641 C 190.7251739501953 -107.217155456543 190.7496185302734 -107.1812973022461 190.7748870849609 -107.1486892700195 C 190.8433685302734 -107.058219909668 190.9110260009766 -106.9677352905273 190.9770355224609 -106.8772659301758 C 192.3643493652344 -104.9902954101563 193.4859161376953 -102.9052810668945 194.2928619384766 -100.6678314208984 C 195.2473602294922 -98.03831481933594 195.7673950195313 -95.20176696777344 195.7673950195313 -92.24131011962891 C 195.7673950195313 -91.13034057617188 195.6932067871094 -90.03646087646484 195.5513763427734 -88.96379089355469 C 193.9480743408203 -76.83916473388672 183.5710296630859 -67.48262786865234 171.0086975097656 -67.48262786865234 Z" stroke="none" fill="#b4d898"/>
        </g>
        <g id="パス_1130" data-name="パス 1130" transform="translate(-146.386 116.864)" fill="#b4d898" stroke-miterlimit="10">
          <path d="M 171.1449584960938 -69.09331512451172 C 168.5471038818359 -69.09331512451172 165.9990844726563 -69.52223205566406 163.5716552734375 -70.36817169189453 C 161.2238922119141 -71.18634033203125 159.0337219238281 -72.37747955322266 157.06201171875 -73.90850067138672 C 155.2417907714844 -75.31533050537109 153.6482086181641 -76.98233032226563 152.323486328125 -78.86478424072266 L 152.3196716308594 -78.87020874023438 L 152.3157958984375 -78.87560272216797 L 152.2494354248047 -78.96761322021484 C 150.9247131347656 -80.86976623535156 149.9008636474609 -82.94808197021484 149.2063903808594 -85.14481353759766 C 148.8115844726563 -86.38596343994141 148.5234222412109 -87.66190338134766 148.3493347167969 -88.93913269042969 C 148.2059020996094 -89.98390197753906 148.1332550048828 -91.04869842529297 148.1332550048828 -92.10504150390625 C 148.1332550048828 -97.08184051513672 149.6971740722656 -101.8180236816406 152.6559753417969 -105.8015823364258 C 153.6629638671875 -107.1610641479492 154.8240661621094 -108.4128112792969 156.1079406738281 -109.5232620239258 C 158.1522216796875 -111.2914886474609 160.4648132324219 -112.6723022460938 162.9814758300781 -113.6273651123047 C 165.5857086181641 -114.6156616210938 168.3323059082031 -115.1167602539063 171.1449584960938 -115.1167602539063 C 175.9647979736328 -115.1167602539063 180.5788879394531 -113.6425018310547 184.4884033203125 -110.8533706665039 C 185.0746307373047 -110.437614440918 185.6430053710938 -109.9912033081055 186.1803741455078 -109.524658203125 C 187.3892211914063 -108.4797134399414 188.4869537353516 -107.3128051757813 189.4449615478516 -106.0547180175781 L 189.4576110839844 -106.0381088256836 L 189.4680023193359 -106.0254440307617 C 189.4738464355469 -106.0177764892578 189.4794769287109 -106.0098724365234 189.4850769042969 -106.0021896362305 L 189.5111389160156 -105.9667205810547 L 189.5146331787109 -105.9620208740234 L 189.5181579589844 -105.9573593139648 C 189.5809020996094 -105.8747406005859 189.6436614990234 -105.7921447753906 189.7041320800781 -105.7095336914063 C 191.0090179443359 -103.9329681396484 192.0455017089844 -101.9917526245117 192.7859954833984 -99.93816375732422 C 193.6958312988281 -97.43315124511719 194.1566925048828 -94.79855346679688 194.1566925048828 -92.10504150390625 C 194.1566925048828 -91.08473205566406 194.0890350341797 -90.05984497070313 193.9556121826172 -89.05885314941406 C 193.2306823730469 -83.57546234130859 190.5366516113281 -78.52964782714844 186.3696441650391 -74.84970855712891 C 182.1662445068359 -71.13764190673828 176.7593536376953 -69.09331512451172 171.1449584960938 -69.09331512451172 Z" stroke="none"/>
          <path d="M 171.1449584960938 -113.9705505371094 C 168.4717712402344 -113.9705505371094 165.8619995117188 -113.4945220947266 163.3881530761719 -112.5557098388672 C 160.9973754882813 -111.6484146118164 158.8002471923828 -110.3364868164063 156.8577575683594 -108.6563262939453 C 155.6374969482422 -107.6008911132813 154.5340118408203 -106.4112777709961 153.5761413574219 -105.1181259155273 C 150.7652282714844 -101.3336868286133 149.2794647216797 -96.83383941650391 149.2794647216797 -92.10504150390625 C 149.2794647216797 -91.10068511962891 149.3485412597656 -90.08833312988281 149.4850463867188 -89.09393310546875 C 149.6502685546875 -87.88191223144531 149.9238128662109 -86.67078399658203 150.2993011474609 -85.49031066894531 C 150.9579315185547 -83.40696716308594 151.9286346435547 -81.435546875 153.1846313476563 -79.63040924072266 L 153.245361328125 -79.54622650146484 L 153.2531890869141 -79.53536987304688 L 153.2608795166016 -79.52442932128906 C 154.51953125 -77.73586273193359 156.0335693359375 -76.15205383300781 157.7609252929688 -74.81700897216797 L 157.7629699707031 -74.8154296875 L 157.7649993896484 -74.8138427734375 C 159.6382598876953 -73.35927581787109 161.7188110351563 -72.22771453857422 163.9488677978516 -71.4505615234375 C 166.2547302246094 -70.64698028564453 168.6758422851563 -70.23953247070313 171.1449584960938 -70.23953247070313 C 176.4797058105469 -70.23953247070313 181.6171417236328 -72.18192291259766 185.6109008789063 -75.70887756347656 C 189.5706481933594 -79.20577239990234 192.1305694580078 -83.99981689453125 192.8194427490234 -89.21027374267578 C 192.9461975097656 -90.16126251220703 193.0104675292969 -91.13519287109375 193.0104675292969 -92.10504150390625 C 193.0104675292969 -94.66471099853516 192.57275390625 -97.16765594482422 191.7095184326172 -99.54434967041016 L 191.7086181640625 -99.54685211181641 L 191.7077178955078 -99.54936218261719 C 191.0045776367188 -101.4994049072266 190.0200500488281 -103.343132019043 188.7790985107422 -105.0326385498047 C 188.7225646972656 -105.1099014282227 188.6638031005859 -105.1871109008789 188.6051635742188 -105.2643737792969 L 188.5982360839844 -105.2734909057617 L 188.5914001464844 -105.2826766967773 L 188.5624542236328 -105.3220596313477 L 188.5584106445313 -105.3269958496094 L 188.5330352783203 -105.3602981567383 C 187.6229095458984 -106.5554885864258 186.5797882080078 -107.6642913818359 185.4326477050781 -108.655876159668 L 185.4307556152344 -108.6575088500977 L 185.4288635253906 -108.6591567993164 C 184.9197998046875 -109.1011581420898 184.3811645507813 -109.5241928100586 183.8279724121094 -109.9165115356445 L 183.8253326416016 -109.9183807373047 L 183.8226928710938 -109.9202651977539 C 180.1086273193359 -112.5699844360352 175.7247314453125 -113.9705505371094 171.1449584960938 -113.9705505371094 M 171.1449584960938 -116.2629928588867 C 176.3665008544922 -116.2629928588867 181.2032928466797 -114.6050796508789 185.1540985107422 -111.7864685058594 C 185.7678680419922 -111.3511962890625 186.3628845214844 -110.884162902832 186.9318237304688 -110.3901977539063 C 188.1944274902344 -109.2987823486328 189.3445434570313 -108.0785675048828 190.3568878173828 -106.7491455078125 C 190.3829803466797 -106.7173614501953 190.4074249267578 -106.6822967529297 190.4310607910156 -106.6505126953125 C 190.4978942871094 -106.5624923706055 190.5647277832031 -106.4744415283203 190.6291351318359 -106.3864212036133 C 191.9821929931641 -104.544303894043 193.0768737792969 -102.5106201171875 193.8642578125 -100.3269577026367 C 194.7959289550781 -97.76185607910156 195.3029174804688 -94.99295043945313 195.3029174804688 -92.10504150390625 C 195.3029174804688 -91.02095031738281 195.2311859130859 -89.95318603515625 195.091796875 -88.90740966796875 C 193.5276336669922 -77.07621765136719 183.4024505615234 -67.94709014892578 171.1449584960938 -67.94709014892578 C 165.57373046875 -67.94709014892578 160.4435119628906 -69.83159637451172 156.3590240478516 -73.00315856933594 C 154.4533386230469 -74.47604370117188 152.7742156982422 -76.23259735107422 151.3861083984375 -78.20512390136719 L 151.3143768310547 -78.30458068847656 C 149.9417419433594 -80.27386474609375 148.852783203125 -82.46076202392578 148.1134796142578 -84.79928588867188 C 147.7051086425781 -86.08307647705078 147.4002685546875 -87.41496276855469 147.2136077880859 -88.78430938720703 C 147.0644378662109 -89.870849609375 146.9870147705078 -90.97856903076172 146.9870147705078 -92.10504150390625 C 146.9870147705078 -97.49202728271484 148.7516937255859 -102.467414855957 151.7357940673828 -106.4850387573242 C 152.79541015625 -107.9155578613281 154.0123443603516 -109.2262268066406 155.3580932617188 -110.3901977539063 C 159.5892639160156 -114.0499954223633 165.1091461181641 -116.2629928588867 171.1449584960938 -116.2629928588867 Z" stroke="none" fill="#fff"/>
        </g>
        <path id="パス_1131" data-name="パス 1131" d="M166.894-73c-1.036-.439-5.134-2.309-7.272-3.463-2.229-1.21-4.484-2.6-5.566-5.27a4.269,4.269,0,0,1,2.251-5.621,4.484,4.484,0,0,1,5.376,1.471l.02-.008a4.517,4.517,0,0,1,2.841-4.794,4.269,4.269,0,0,1,5.526,2.476c1.081,2.673.424,5.236-.338,7.656-.734,2.316-2.361,6.5-2.8,7.536Z" transform="translate(-147.632 112.189)" opacity="0.2"/>
        <path id="パス_1132" data-name="パス 1132" d="M182.5-73.014c-.44-1.036-2.066-5.221-2.8-7.536-.761-2.42-1.418-4.984-.337-7.656a4.268,4.268,0,0,1,5.526-2.476,4.517,4.517,0,0,1,2.841,4.794l.02.008a4.484,4.484,0,0,1,5.376-1.471,4.268,4.268,0,0,1,2.251,5.621c-1.081,2.674-3.335,4.059-5.566,5.27-2.136,1.154-6.235,3.025-7.271,3.463Z" transform="translate(-152.267 112.189)" opacity="0.2"/>
        <g id="グループ_784" data-name="グループ 784" transform="translate(12.32 11.736)">
          <path id="パス_1133" data-name="パス 1133" d="M180.559-102.5c-3.339-.432-5.266.576-6.668.72-1.4-.143-3.327-1.152-6.668-.72-3.829.495-6.35,3.645-5.778,8.925.593,5.47,4.283,9.5,4.728,14.538.43,4.879,3.34,4.176,4.081,2.448s2.008-3.855,3.637-3.855,2.9,2.128,3.637,3.855,3.651,2.431,4.081-2.448c.444-5.037,4.135-9.068,4.728-14.538C186.909-98.85,184.388-102,180.559-102.5Z" transform="translate(-161.365 102.602)" fill="#fff" stroke="#b4d898" stroke-miterlimit="10" stroke-width="1.182"/>
        </g>
      </g>
      <g id="グループ_786" data-name="グループ 786" transform="translate(209.574 -112.106)">
        <path id="パス_1134" data-name="パス 1134" d="M253.773-101.869V-76.81h-2.881v-2.919H226.782v3.07h-2.843V-101.83h2.843v19.258h10.425v-27.446h2.881v27.446h10.8v-19.3Z" transform="translate(-223.939 110.815)" fill="#333"/>
        <path id="パス_1135" data-name="パス 1135" d="M287.861-100.221c3.146,6.482,8.605,12.51,14.557,15.391a10,10,0,0,0-2.084,2.465c-5.725-3.147-10.8-8.909-14.217-15.467v11.6h7.2v2.8h-7.2v7.051H283.2v-7.051h-7.392v-2.8H283.2v-11.6c-3.487,6.558-8.606,12.282-14.178,15.5a11.338,11.338,0,0,0-2.009-2.274c5.762-3,11.259-9.136,14.443-15.619H268.3v-2.806h14.9v-7.923h2.919v7.923h15.013v2.806Z" transform="translate(-231.903 110.987)" fill="#333"/>
        <path id="パス_1136" data-name="パス 1136" d="M348.362-102.344v2.5H314.548v-2.5h5.838v-6.672h2.654v6.672h7.013v-8.605h2.767v2.995h12.131v2.35H332.82v3.26Zm-5,3.867h2.691v22.139h-2.691v-1.743H319.552v1.743H316.9V-98.477h2.653v17.969h23.807ZM330.053-88.355a25,25,0,0,1-8.037,6.217,9.6,9.6,0,0,0-1.63-1.9,22.925,22.925,0,0,0,8.53-5.914h-7.771v-2.161h8.908v-6.483h2.464v6.483h9.4v2.161h-8.113a23.339,23.339,0,0,0,8.454,5.762,10.891,10.891,0,0,0-1.669,1.858,26.121,26.121,0,0,1-8.074-6.142v6.976h-2.464Zm-5.459-9.44a21.291,21.291,0,0,1,2.956,4.4l-2.047.985A21.332,21.332,0,0,0,322.661-97Zm15.656.569a43.788,43.788,0,0,1-3.185,4.7l-1.82-.758a31.174,31.174,0,0,0,2.73-4.739Z" transform="translate(-240.693 110.987)" fill="#333"/>
        <path id="パス_1137" data-name="パス 1137" d="M373.184-88.326c-.644-1.25-2.237-3.714-3.525-5.648v17.552h-2.768V-93.179a40.116,40.116,0,0,1-5.5,9.895,12.78,12.78,0,0,0-1.4-2.54,38.553,38.553,0,0,0,6.52-11.9h-5.989v-2.653h6.368v-5.724c-1.743.341-3.525.644-5.193.872a13.1,13.1,0,0,0-.834-2.2,57.487,57.487,0,0,0,12.055-3.033l1.705,2.237a33.627,33.627,0,0,1-4.966,1.517v6.331h5.572v2.653h-5.572v.683c1.175,1.327,4.435,5.5,5.231,6.52Zm17.135,2.01v9.894h-2.767v-9.44l-12.359,2.048-.455-2.691,12.813-2.047V-111h2.767v21.987l4.436-.682.417,2.578ZM383-91.359a32.522,32.522,0,0,0-6.672-5.535l1.744-1.669a33.088,33.088,0,0,1,6.786,5.345Zm.834-10.009a29.614,29.614,0,0,0-6.028-5.383l1.782-1.63a28.108,28.108,0,0,1,6.179,5.194Z" transform="translate(-249.095 110.996)" fill="#333"/>
        <path id="パス_1138" data-name="パス 1138" d="M441.751-77.732H412.334v1.782h-2.806v-32.488h31.39v2.691H412.334v25.362h29.417ZM428.862-92.1c1.971,4.094,5.99,6.71,11.6,7.772a9.935,9.935,0,0,0-1.743,2.388c-5.193-1.251-8.985-3.754-11.334-7.658-1.365,2.919-4.512,5.686-11.222,7.734a11.111,11.111,0,0,0-1.707-2.085c7.734-2.123,10.2-5.231,10.918-8.151H414.533v-2.5h11.146V-99.15H419.8a19.11,19.11,0,0,1-3.033,3.222,19.762,19.762,0,0,0-2.313-1.4,18.985,18.985,0,0,0,5.764-7.809l2.652.645a22.725,22.725,0,0,1-1.4,2.919h16.983v2.427H428.445V-94.6H440.2v2.5Z" transform="translate(-258.254 110.523)" fill="#333"/>
        <path id="パス_1139" data-name="パス 1139" d="M466.158-108.354c-1.138,3.109-2.5,6.976-3.754,9.97a11.723,11.723,0,0,1,3.375,8.113c0,2.009-.456,3.6-1.479,4.322a4.075,4.075,0,0,1-1.971.682,18.327,18.327,0,0,1-2.54.076,5.7,5.7,0,0,0-.721-2.5,10.921,10.921,0,0,0,2.2.037,2.29,2.29,0,0,0,1.213-.3,3.34,3.34,0,0,0,.759-2.577c0-2.048-.645-4.587-3.375-7.506,1.1-2.767,2.2-6.141,3-8.719h-4.966v30.4h-2.5V-109.34h8.492l.455-.113Zm18.8,28.963c.8,0,.948-.606,1.024-4.738a6.153,6.153,0,0,0,2.426,1.1c-.266,4.891-.948,6.179-3.185,6.179h-3.26c-2.54,0-3.185-.834-3.185-3.6v-10.16h-4.36c-.53,7.2-2.16,11.79-9.1,14.292a7.771,7.771,0,0,0-1.554-2.2c6.217-2.048,7.544-5.876,8-12.094h-5.041v-2.54h21.306v2.54h-6.6v10.16c0,.91.113,1.061.948,1.061Zm-16.112-20.32h-2.5v-6.862h9.06v-4.283h2.731v4.283h9.78v6.824H485.3v-4.435H468.848Zm.493,2.237v-2.464h15.543v2.464Z" transform="translate(-266.734 110.97)" fill="#333"/>
      </g>
    </g>
  </g>
</svg>
